HIERARCHY
ROOT Hips
{
  OFFSET 5.84602e-005 68.8428 3.50346
  CHANNELS 6 Xposition Yposition Zposition Zrotation Xrotation Yrotation
  JOINT Spine
  {
    OFFSET 0 8.597 -4.6522
    CHANNELS 3 Zrotation Xrotation Yrotation
    JOINT Spine1
    {
      OFFSET 0 7.8454 0.4098
      CHANNELS 3 Zrotation Xrotation Yrotation
      JOINT Spine2
      {
        OFFSET 0 9.7078 -2.1609
        CHANNELS 3 Zrotation Xrotation Yrotation
        JOINT Neck
        {
          OFFSET 0 21.8761 -0.4549
          CHANNELS 3 Zrotation Xrotation Yrotation
          JOINT Head
          {
            OFFSET 0 12.3537 3.3602
            CHANNELS 3 Zrotation Xrotation Yrotation
            End Site
            {
              OFFSET 0.0001 18.9506 0.5657
            }
          }
        }
        JOINT LeftShoulder
        {
          OFFSET 2.2086 21.1115 7.2329
          CHANNELS 3 Zrotation Xrotation Yrotation
          JOINT LeftArm
          {
            OFFSET 13.1193 3.0282 -4.8998
            CHANNELS 3 Zrotation Xrotation Yrotation
            JOINT LeftForeArm
            {
              OFFSET 27.4081 -0.0973053 -0.2375
              CHANNELS 3 Zrotation Xrotation Yrotation
              JOINT LeftHand
              {
                OFFSET 22.8641 0.0662994 -0.1369
                CHANNELS 3 Zrotation Xrotation Yrotation
                JOINT LeftHandIndex1
                {
                  OFFSET 8.8614 0.775009 2.4612
                  CHANNELS 3 Zrotation Xrotation Yrotation
                  JOINT LeftHandIndex2
                  {
                    OFFSET 3.3146 -0.808304 0.5841
                    CHANNELS 3 Zrotation Xrotation Yrotation
                    JOINT LeftHandIndex3
                    {
                      OFFSET 2.2628 -0.552002 0.3989
                      CHANNELS 3 Zrotation Xrotation Yrotation
                      End Site
                      {
                        OFFSET 1.6102 -0.4807 0.2612
                      }
                    }
                  }
                }
                JOINT LeftHandMiddle1
                {
                  OFFSET 8.9937 0.895004 0.2143
                  CHANNELS 3 Zrotation Xrotation Yrotation
                  JOINT LeftHandMiddle2
                  {
                    OFFSET 4.0984 0.0113983 -0.0242
                    CHANNELS 3 Zrotation Xrotation Yrotation
                    JOINT LeftHandMiddle3
                    {
                      OFFSET 2.2716 0.00689697 -0.0138001
                      CHANNELS 3 Zrotation Xrotation Yrotation
                      End Site
                      {
                        OFFSET 2.0404 -0.1441 0.0027
                      }
                    }
                  }
                }
                JOINT LeftHandRing1
                {
                  OFFSET 8.5234 0.597198 -2.0164
                  CHANNELS 3 Zrotation Xrotation Yrotation
                  JOINT LeftHandRing2
                  {
                    OFFSET 3.7188 -0.188293 -0.2328
                    CHANNELS 3 Zrotation Xrotation Yrotation
                    JOINT LeftHandRing3
                    {
                      OFFSET 2.1191 -0.106598 -0.1332
                      CHANNELS 3 Zrotation Xrotation Yrotation
                      End Site
                      {
                        OFFSET 1.8737 -0.2304 -0.0886
                      }
                    }
                  }
                }
                JOINT LeftHandPinky1
                {
                  OFFSET 7.9094 -0.601089 -3.4825
                  CHANNELS 3 Zrotation Xrotation Yrotation
                  JOINT LeftHandPinky2
                  {
                    OFFSET 2.2874 -0.477005 -0.6314
                    CHANNELS 3 Zrotation Xrotation Yrotation
                    JOINT LeftHandPinky3
                    {
                      OFFSET 1.6774 -0.349396 -0.4633
                      CHANNELS 3 Zrotation Xrotation Yrotation
                      End Site
                      {
                        OFFSET 1.4888 -0.4091 -0.3416
                      }
                    }
                  }
                }
                JOINT LeftHandThumb1
                {
                  OFFSET 1.833 -1.3875 1.3896
                  CHANNELS 3 Zrotation Xrotation Yrotation
                  JOINT LeftHandThumb2
                  {
                    OFFSET 3.4129 -1.121 2.5732
                    CHANNELS 3 Zrotation Xrotation Yrotation
                    JOINT LeftHandThumb3
                    {
                      OFFSET 2.2474 -0.804199 1.6192
                      CHANNELS 3 Zrotation Xrotation Yrotation
                      End Site
                      {
                        OFFSET 1.6527 -0.5689 1.1317
                      }
                    }
                  }
                }
              }
            }
          }
        }
        JOINT RightShoulder
        {
          OFFSET -2.2086 21.1115 7.2329
          CHANNELS 3 Zrotation Xrotation Yrotation
          JOINT RightArm
          {
            OFFSET -13.1216 3.0287 -4.9007
            CHANNELS 3 Zrotation Xrotation Yrotation
            JOINT RightForeArm
            {
              OFFSET -27.4081 -0.0973053 -0.2375
              CHANNELS 3 Zrotation Xrotation Yrotation
              JOINT RightHand
              {
                OFFSET -22.8641 0.0664063 -0.1369
                CHANNELS 3 Zrotation Xrotation Yrotation
                JOINT RightHandIndex1
                {
                  OFFSET -8.8614 0.774994 2.4612
                  CHANNELS 3 Zrotation Xrotation Yrotation
                  JOINT RightHandIndex2
                  {
                    OFFSET -3.3146 -0.808304 0.5841
                    CHANNELS 3 Zrotation Xrotation Yrotation
                    JOINT RightHandIndex3
                    {
                      OFFSET -2.2628 -0.552002 0.3989
                      CHANNELS 3 Zrotation Xrotation Yrotation
                      End Site
                      {
                        OFFSET -1.6102 -0.4807 0.2612
                      }
                    }
                  }
                }
                JOINT RightHandMiddle1
                {
                  OFFSET -8.9937 0.894989 0.2143
                  CHANNELS 3 Zrotation Xrotation Yrotation
                  JOINT RightHandMiddle2
                  {
                    OFFSET -4.0984 0.0113983 -0.0242
                    CHANNELS 3 Zrotation Xrotation Yrotation
                    JOINT RightHandMiddle3
                    {
                      OFFSET -2.2716 0.00691223 -0.0138001
                      CHANNELS 3 Zrotation Xrotation Yrotation
                      End Site
                      {
                        OFFSET -2.0404 -0.1441 0.0027
                      }
                    }
                  }
                }
                JOINT RightHandRing1
                {
                  OFFSET -8.5234 0.597198 -2.0164
                  CHANNELS 3 Zrotation Xrotation Yrotation
                  JOINT RightHandRing2
                  {
                    OFFSET -3.7188 -0.188309 -0.2328
                    CHANNELS 3 Zrotation Xrotation Yrotation
                    JOINT RightHandRing3
                    {
                      OFFSET -2.1191 -0.106598 -0.1332
                      CHANNELS 3 Zrotation Xrotation Yrotation
                      End Site
                      {
                        OFFSET -1.8737 -0.2304 -0.0886
                      }
                    }
                  }
                }
                JOINT RightHandPinky1
                {
                  OFFSET -7.9094 -0.601105 -3.4825
                  CHANNELS 3 Zrotation Xrotation Yrotation
                  JOINT RightHandPinky2
                  {
                    OFFSET -2.2874 -0.477005 -0.6314
                    CHANNELS 3 Zrotation Xrotation Yrotation
                    JOINT RightHandPinky3
                    {
                      OFFSET -1.6774 -0.349396 -0.4633
                      CHANNELS 3 Zrotation Xrotation Yrotation
                      End Site
                      {
                        OFFSET -1.4888 -0.4091 -0.3416
                      }
                    }
                  }
                }
                JOINT RightHandThumb1
                {
                  OFFSET -1.833 -1.38751 1.3896
                  CHANNELS 3 Zrotation Xrotation Yrotation
                  JOINT RightHandThumb2
                  {
                    OFFSET -3.41299 -1.12099 2.5732
                    CHANNELS 3 Zrotation Xrotation Yrotation
                    JOINT RightHandThumb3
                    {
                      OFFSET -2.24741 -0.804108 1.6192
                      CHANNELS 3 Zrotation Xrotation Yrotation
                      End Site
                      {
                        OFFSET -1.6527 -0.5689 1.1317
                      }
                    }
                  }
                }
              }
            }
          }
        }
      }
    }
  }
  JOINT RightUpLeg
  {
    OFFSET -9.1966 3.8861 -0.7581
    CHANNELS 3 Zrotation Xrotation Yrotation
    JOINT RightLeg
    {
      OFFSET -0.7359 -41.0265 0
      CHANNELS 3 Zrotation Xrotation Yrotation
      JOINT RightFoot
      {
        OFFSET 0 -40.2855 0
        CHANNELS 3 Zrotation Xrotation Yrotation
        JOINT RightToeBase
        {
          OFFSET 0 -5.6122 11.7359
          CHANNELS 3 Zrotation Xrotation Yrotation
          End Site
          {
            OFFSET 0 0 7.8731
          }
        }
      }
    }
  }
  JOINT LeftUpLeg
  {
    OFFSET 9.1965 3.8864 -0.7581
    CHANNELS 3 Zrotation Xrotation Yrotation
    JOINT LeftLeg
    {
      OFFSET 0.7359 -41.0268 0
      CHANNELS 3 Zrotation Xrotation Yrotation
      JOINT LeftFoot
      {
        OFFSET 0 -40.2855 0
        CHANNELS 3 Zrotation Xrotation Yrotation
        JOINT LeftToeBase
        {
          OFFSET 0 -5.6122 11.7359
          CHANNELS 3 Zrotation Xrotation Yrotation
          End Site
          {
            OFFSET 0 0 7.8731
          }
        }
      }
    }
  }
}
MOTION
Frames:	4
Frame Time:	0.0333333
39.7426 67.0908 26.2481 0 18.9975 -0 -0.234466 -0.637462 -0.201412 -0.471215 -1.27413 -0.405469 -0.471215 -1.27412 -0.405469 -5.82642e-005 -26.0015 -3.00578e-005 9.56261e-008 17.9983 -1.05536e-007 10.3696 18.0466 3.43706 -76.8286 -2.08019 1.3033 -34.6989 9.5244 0.0996373 8.11233 6.57969 -26.5977 7.95139e-016 -1.59028e-015 -0 8.94531e-016 7.95139e-016 -0 8.94531e-016 0 7.95139e-016 7.95139e-016 -1.59028e-015 -0 -0.0146057 -8.86863e-005 2.9815e-007 4.47266e-016 -7.95139e-016 7.95139e-016 7.95139e-016 -1.59028e-015 -0 -0.0187225 -0.00117435 6.06787e-005 2.98177e-015 0 -7.95139e-016 7.95139e-016 -1.59028e-015 -0 -0.0123184 -0.00326064 0.000681382 2.23633e-015 7.95139e-016 -0 7.95139e-016 -1.59028e-015 -0 8.94531e-016 7.95139e-016 -0 8.94531e-016 0 7.95139e-016 -1.90771 19.1715 -7.76042 76.018 -2.12895 -2.55914 20.3214 4.36361 -0.137025 0.922389 7.10979 22.2792 3.0443e-007 3.83995e-007 6.53932e-007 1.98785e-016 7.95139e-016 1.59028e-015 -1.19271e-015 -7.95139e-016 1.59028e-015 3.0443e-007 3.83995e-007 6.53932e-007 0.014973 -9.03717e-005 9.56849e-007 -1.39149e-015 0 1.59028e-015 3.0443e-007 3.83995e-007 6.53932e-007 0.0190039 -0.0011912 -6.18907e-005 1.98785e-016 -7.95139e-016 -1.59028e-015 3.0443e-007 3.83995e-007 6.53932e-007 0.0122568 -0.00324669 -0.000676314 2.08724e-015 -7.95139e-016 -6.36111e-015 3.0443e-007 3.83995e-007 6.53932e-007 1.98785e-016 7.95139e-016 1.59028e-015 -1.19271e-015 -7.95139e-016 1.59028e-015 -2.48117 -39.0975 -25.264 -9.69263 19.0964 2.49888 11.5601 1.11591 5.26805 -2.5842e-015 -3.97569e-016 3.18055e-015 12.2434 -36.2136 71.4424 8.16044 20.8142 -2.62052 0.0670308 4.09561 -32.2136 5.71142e-008 2.04922e-007 1.67367e-008 
39.7426 67.1635 26.2494 0 18.9975 -0 -0.234976 -0.505253 -0.201008 -0.47175 -1.00966 -0.40411 -0.471749 -1.00966 -0.40411 0.000138593 -26.0015 0.000101045 2.87941e-007 17.9983 -9.6198e-008 10.1554 17.637 3.5097 -76.8286 -2.08019 1.30329 -34.3565 9.35683 0.100624 7.87944 6.46614 -26.4896 1.0119e-007 1.50374e-006 -7.47677e-007 -9.36509e-008 -1.14323e-006 9.98513e-007 1.0119e-007 1.50374e-006 -7.47677e-007 1.0119e-007 1.50374e-006 -7.47677e-007 -0.0146304 -9.03775e-005 2.75081e-007 3.9336e-006 1.35295e-006 -5.50151e-007 1.0119e-007 1.50374e-006 -7.47677e-007 -0.0187566 -0.00117734 6.12276e-005 1.01187e-007 1.50386e-006 -7.47432e-007 1.0119e-007 1.50374e-006 -7.47677e-007 -0.0122908 -0.00325532 0.000678292 1.0118e-007 1.50382e-006 -7.47519e-007 1.0119e-007 1.50374e-006 -7.47677e-007 -9.36509e-008 -1.14323e-006 9.98513e-007 1.0119e-007 1.50374e-006 -7.47677e-007 -1.60101 18.7341 -7.82751 76.0259 -2.13017 -2.54949 19.9082 4.25475 -0.137872 1.18148 7.0017 22.098 7.17239e-008 -1.27898e-006 -2.35405e-006 -3.66766e-008 -4.07807e-008 -1.19742e-006 7.17239e-008 -1.27898e-006 -2.35405e-006 7.17239e-008 -1.27898e-006 -2.35405e-006 0.0149959 -9.02737e-005 -2.10696e-008 7.16793e-008 -1.27928e-006 -2.35388e-006 7.17239e-008 -1.27898e-006 -2.35405e-006 0.0190041 -0.00119169 -5.56702e-005 7.16458e-008 -1.27936e-006 -2.35384e-006 7.17239e-008 -1.27898e-006 -2.35405e-006 0.0123053 -0.0032563 -0.000678734 -2.38162e-007 -1.64547e-006 -2.96892e-006 7.17239e-008 -1.27898e-006 -2.35405e-006 -3.66766e-008 -4.07807e-008 -1.19742e-006 7.17239e-008 -1.27898e-006 -2.35405e-006 -2.13111 -38.7093 -23.8658 -9.4946 18.5301 2.41982 11.7218 1.23135 4.04006 -1.66906e-006 9.35233e-008 3.36796e-006 12.0356 -35.8969 71.4583 7.83812 20.3445 -2.50756 0.243982 4.32271 -32.3882 -5.71251e-008 -2.04919e-007 -1.66952e-008 
39.7425 67.2362 26.2506 0 18.9975 -0 -0.235443 -0.372956 -0.200566 -0.472205 -0.745052 -0.402675 -0.472205 -0.745054 -0.402675 6.57293e-005 -26.0014 5.28176e-005 3.12594e-007 17.9984 8.77233e-008 9.94208 17.2267 3.58048 -76.8286 -2.08019 1.30328 -34.0135 9.19209 0.101607 7.64684 6.35216 -26.382 -1.50835e-007 -1.80464e-006 1.57678e-006 -8.5936e-008 -1.52311e-006 1.993e-007 -5.94083e-008 2.79101e-007 2.01913e-006 -1.50835e-007 -1.80464e-006 1.57678e-006 -0.0146031 -8.99282e-005 -6.90366e-007 -5.84466e-006 5.72481e-007 1.85941e-006 -1.50835e-007 -1.80464e-006 1.57678e-006 -0.0187381 -0.00117697 6.0667e-005 -5.84515e-006 5.72284e-007 1.85949e-006 -1.50835e-007 -1.80464e-006 1.57678e-006 -0.0122933 -0.00325519 0.000676595 -5.9337e-008 2.78888e-007 2.01916e-006 -1.50835e-007 -1.80464e-006 1.57678e-006 -8.5936e-008 -1.52311e-006 1.993e-007 -5.94083e-008 2.79101e-007 2.01913e-006 -1.29579 18.2961 -7.89215 76.0338 -2.13138 -2.53985 19.4942 4.14893 -0.138709 1.44019 6.89282 21.9173 -1.19271e-015 0 1.59028e-015 1.98785e-016 0 1.59028e-015 3.97569e-016 0 1.59028e-015 -1.19271e-015 0 1.59028e-015 0.0149999 -9.12734e-005 1.95515e-006 5.96354e-016 1.59028e-015 -0 -1.19271e-015 0 1.59028e-015 0.0189851 -0.00118995 -5.67045e-005 5.96354e-016 -1.59028e-015 -4.77083e-015 -1.19271e-015 0 1.59028e-015 0.0122129 -0.00322982 -0.000675805 1.98785e-016 1.59028e-015 3.18055e-015 -1.19271e-015 0 1.59028e-015 1.98785e-016 0 1.59028e-015 3.97569e-016 0 1.59028e-015 -1.78907 -38.3146 -22.476 -9.30773 17.9587 2.34506 11.8902 1.34515 2.81182 -1.69347e-008 1.05052e-007 -8.12496e-009 11.8248 -35.5825 71.4741 7.52428 19.87 -2.39939 0.418454 4.55127 -32.5634 3.47873e-016 -1.36664e-015 -3.18055e-015 
39.7424 67.3089 26.2518 0 18.9975 -0 -0.235892 -0.240677 -0.200106 -0.472629 -0.480506 -0.401207 -0.472629 -0.480501 -0.401207 -8.64373e-005 -26.0016 -5.82896e-005 -4.39289e-007 17.9983 -1.37898e-007 9.72971 16.8162 3.64945 -76.8286 -2.08018 1.30329 -33.6698 9.03015 0.102608 7.41449 6.23774 -26.2749 -3.62782e-015 1.59028e-015 7.95139e-016 -3.8763e-015 2.38542e-015 7.95139e-016 -2.28602e-015 1.59028e-015 -0 -3.62782e-015 1.59028e-015 7.95139e-016 -0.0146406 -9.00851e-005 -3.09498e-007 -3.83524e-006 1.87603e-007 -2.35548e-007 -3.62782e-015 1.59028e-015 7.95139e-016 -0.0186868 -0.00117294 5.88815e-005 3.13086e-015 -3.18055e-015 -0 -3.62782e-015 1.59028e-015 7.95139e-016 -0.0123314 -0.00326434 0.000680874 9.59136e-015 -2.38542e-015 3.18055e-015 -3.62782e-015 1.59028e-015 7.95139e-016 -3.8763e-015 2.38542e-015 7.95139e-016 -2.28602e-015 1.59028e-015 -0 -0.991949 17.8577 -7.95422 76.0417 -2.1326 -2.53022 19.0798 4.04619 -0.1395 1.69843 6.78312 21.7372 3.17066e-007 3.31477e-007 5.3778e-007 -1.98785e-016 -7.95139e-016 -3.18055e-015 -1.19271e-015 0 -1.59028e-015 3.17066e-007 3.31477e-007 5.3778e-007 0.0149991 -9.09201e-005 -1.52263e-007 3.97569e-016 -7.95139e-016 -1.59028e-015 3.17066e-007 3.31477e-007 5.3778e-007 0.01902 -0.00119253 -6.20611e-005 -3.97569e-016 -7.95139e-016 -6.36111e-015 3.17066e-007 3.31477e-007 5.3778e-007 0.0122885 -0.00325575 -0.000676708 1.59028e-015 0 -0 3.17066e-007 3.31477e-007 5.3778e-007 -1.98785e-016 -7.95139e-016 -3.18055e-015 -1.19271e-015 0 -1.59028e-015 -1.45535 -37.9137 -21.0947 -9.1319 17.3827 2.27448 12.0652 1.45695 1.58359 2.53991e-008 -1.57577e-007 1.22285e-008 11.6114 -35.2706 71.4898 7.21849 19.3912 -2.29579 0.590628 4.78114 -32.7393 1.3418e-015 -4.96962e-016 9.54166e-015 
